<?xml version="1.0" standalone="no"?><!DOCTYPE svg PUBLIC "-//W3C//DTD SVG 1.1//EN" "http://www.w3.org/Graphics/SVG/1.1/DTD/svg11.dtd">
<svg t="1682596219207" class="icon" viewBox="0 0 1024 1024" version="1.1" xmlns="http://www.w3.org/2000/svg" p-id="1486"
     width="200" height="200"><path d="M832 725.333333m-42.666667 0a42.666667 42.666667 0 1 0 85.333334 0 42.666667 42.666667 0 1 0-85.333334 0Z" fill="#7C8691" p-id="1487"></path><path d="M277.333333 725.333333m-42.666666 0a42.666667 42.666667 0 1 0 85.333333 0 42.666667 42.666667 0 1 0-85.333333 0Z" fill="#7C8691" p-id="1488"></path><path d="M874.666667 725.333333a42.666667 42.666667 0 1 0-42.666667 42.666667 42.794667 42.794667 0 0 0 42.666667-42.666667z m-42.666667-106.666666a106.666667 106.666667 0 1 1-106.666667 106.666666 106.666667 106.666667 0 0 1 106.666667-106.666666zM170.666667 725.333333a106.666667 106.666667 0 1 1 106.666666 106.666667 106.666667 106.666667 0 0 1-106.666666-106.666667z m106.666666-42.666666a42.666667 42.666667 0 1 0 42.666667 42.666666 42.794667 42.794667 0 0 0-42.666667-42.666666z" fill="#C1CAD4" p-id="1489"></path><path d="M341.333333 192h85.333334v85.333333h-85.333334z" fill="#F3596B" p-id="1490"></path><path d="M704 362.666667h85.333333v128h-85.333333zM533.333333 362.666667h85.333334v128h-85.333334zM448 362.666667v128h-106.666667l21.333334-128h85.333333z" fill="#87D7F5" p-id="1491"></path><path d="M938.666667 490.666667h64v64h-64zM128 490.666667s19.2 38.613333-0.426667 63.786666C117.973333 566.826667 98.986667 576 64 576c0-42.666667-42.666667-85.333333-42.666667-85.333333h106.666667z" fill="#F3596B" p-id="1492"></path><path d="M277.333333 618.666667a106.666667 106.666667 0 0 0-106.666666 106.666666H64v-149.333333c34.986667 0 53.973333-9.173333 63.573333-21.546667L128 554.666667h874.666667v170.666666h-64a106.666667 106.666667 0 0 0-213.333334 0H384a106.666667 106.666667 0 0 0-106.666667-106.666666z" fill="#F3B55E" p-id="1493"></path><path d="M341.333333 490.666667h106.666667v-128h-85.333333z m192 0h85.333334v-128h-85.333334z m170.666667 0h85.333333v-128h-85.333333z m234.666667 0v64H128l-0.426667-0.213334C147.2 529.28 128 490.666667 128 490.666667h93.013333a42.666667 42.666667 0 0 0 41.813334-34.346667l29.013333-144.64A42.666667 42.666667 0 0 1 333.653333 277.333333H832a42.794667 42.794667 0 0 1 42.666667 42.666667v128a42.794667 42.794667 0 0 0 42.666666 42.666667z" fill="#FFCA6B" p-id="1494"></path><path d="M277.333333 853.333333a128 128 0 1 1 128-128 128.128 128.128 0 0 1-128 128z m0-213.333333a85.333333 85.333333 0 1 0 85.333334 85.333333 85.333333 85.333333 0 0 0-85.333334-85.333333z" fill="#2A3244" p-id="1495"></path><path d="M277.333333 789.333333a64 64 0 1 1 64-64 64 64 0 0 1-64 64z m0-85.333333a21.333333 21.333333 0 1 0 21.333334 21.333333 21.333333 21.333333 0 0 0-21.333334-21.333333zM832 789.333333a64 64 0 1 1 64-64 64 64 0 0 1-64 64z m0-85.333333a21.333333 21.333333 0 1 0 21.333333 21.333333 21.333333 21.333333 0 0 0-21.333333-21.333333z" fill="#2A3244" p-id="1496"></path><path d="M832 853.333333a128 128 0 1 1 128-128 128.128 128.128 0 0 1-128 128z m0-213.333333a85.333333 85.333333 0 1 0 85.333333 85.333333 85.333333 85.333333 0 0 0-85.333333-85.333333z" fill="#2A3244" p-id="1497"></path><path d="M1002.666667 746.666667h-64v-42.666667h42.666666v-192h-64a64 64 0 0 1-64-64v-128a21.333333 21.333333 0 0 0-21.333333-21.333333H426.666667v-42.666667h405.333333a64 64 0 0 1 64 64v128a21.333333 21.333333 0 0 0 21.333333 21.333333h85.333334a21.333333 21.333333 0 0 1 21.333333 21.333334v234.666666a21.333333 21.333333 0 0 1-21.333333 21.333334zM221.013333 512H85.333333v-42.666667h135.68a21.482667 21.482667 0 0 0 20.906667-17.258666l29.013333-144.597334A64.277333 64.277333 0 0 1 333.653333 256H341.333333v42.666667h-7.68a21.482667 21.482667 0 0 0-20.906666 17.258666l-29.013334 144.597334A64.277333 64.277333 0 0 1 221.013333 512z" fill="#2A3244" p-id="1498"></path><path d="M170.666667 746.666667H64a21.333333 21.333333 0 0 1-21.333333-21.333334v-149.333333a125.12 125.12 0 0 0-36.437334-70.272A21.333333 21.333333 0 0 1 21.333333 469.333333h64v42.666667h-20.650666A126.485333 126.485333 0 0 1 85.333333 576v128h85.333334zM384 704h341.333333v42.666667H384zM448 512h-106.666667a21.333333 21.333333 0 0 1-21.034666-24.853333l21.333333-128A21.333333 21.333333 0 0 1 362.666667 341.333333h85.333333a21.333333 21.333333 0 0 1 21.333333 21.333334v128a21.333333 21.333333 0 0 1-21.333333 21.333333z m-81.472-42.666667H426.666667v-85.333333h-45.930667zM618.666667 512h-85.333334a21.333333 21.333333 0 0 1-21.333333-21.333333v-128a21.333333 21.333333 0 0 1 21.333333-21.333334h85.333334a21.333333 21.333333 0 0 1 21.333333 21.333334v128a21.333333 21.333333 0 0 1-21.333333 21.333333z m-64-42.666667h42.666666v-85.333333h-42.666666zM789.333333 512h-85.333333a21.333333 21.333333 0 0 1-21.333333-21.333333v-128a21.333333 21.333333 0 0 1 21.333333-21.333334h85.333333a21.333333 21.333333 0 0 1 21.333334 21.333334v128a21.333333 21.333333 0 0 1-21.333334 21.333333z m-64-42.666667h42.666667v-85.333333h-42.666667zM128 533.333333h810.666667v42.666667H128z" fill="#2A3244" p-id="1499"></path><path d="M1002.666667 576h-64a21.333333 21.333333 0 0 1-21.333334-21.333333v-64h42.666667v42.666666h42.666667zM64 597.333333v-42.666666a61.077333 61.077333 0 0 0 46.72-13.290667c9.152-11.712 1.536-34.304-1.856-41.301333l38.336-18.901334a85.525333 85.525333 0 0 1-2.688 86.4C129.088 587.306667 102.016 597.333333 64 597.333333zM426.666667 298.666667h-85.333334a21.333333 21.333333 0 0 1-21.333333-21.333334V192a21.333333 21.333333 0 0 1 21.333333-21.333333h85.333334a21.333333 21.333333 0 0 1 21.333333 21.333333v85.333333a21.333333 21.333333 0 0 1-21.333333 21.333334z m-64-42.666667h42.666666v-42.666667h-42.666666z" fill="#2A3244" p-id="1500"></path></svg>
